<mxfile host="Electron" modified="2024-01-06T20:12:58.869Z" agent="Mozilla/5.0 (X11; Linux x86_64) AppleWebKit/537.36 (KHTML, like Gecko) draw.io/22.1.16 Chrome/120.0.6099.109 Electron/28.1.0 Safari/537.36" etag="PKEw1NmjCN1aLYZVxADB" version="22.1.16" type="device">
  <diagram name="Page-1" id="_l-Lx9mH39XZgQ6nYIQf">
    <mxGraphModel dx="2358" dy="759" grid="1" gridSize="10" guides="1" tooltips="1" connect="1" arrows="1" fold="1" page="1" pageScale="1" pageWidth="827" pageHeight="1169" math="0" shadow="0">
      <root>
        <mxCell id="0" />
        <mxCell id="1" parent="0" />
        <mxCell id="1sTkTSWfPqv4WF1auIRF-1" value="Random User API&lt;br&gt;(RestAPI" style="rounded=0;whiteSpace=wrap;html=1;" vertex="1" parent="1">
          <mxGeometry x="-130" y="210" width="140" height="80" as="geometry" />
        </mxCell>
        <mxCell id="1sTkTSWfPqv4WF1auIRF-10" value="" style="endArrow=classic;html=1;rounded=0;entryX=-0.031;entryY=0.369;entryDx=0;entryDy=0;entryPerimeter=0;" edge="1" parent="1" target="1sTkTSWfPqv4WF1auIRF-7">
          <mxGeometry width="50" height="50" relative="1" as="geometry">
            <mxPoint x="10" y="260" as="sourcePoint" />
            <mxPoint x="150" y="180" as="targetPoint" />
            <Array as="points">
              <mxPoint x="70" y="260" />
              <mxPoint x="70" y="180" />
            </Array>
          </mxGeometry>
        </mxCell>
        <mxCell id="1sTkTSWfPqv4WF1auIRF-11" value="" style="group" vertex="1" connectable="0" parent="1">
          <mxGeometry x="160" y="130" width="170" height="130" as="geometry" />
        </mxCell>
        <mxCell id="1sTkTSWfPqv4WF1auIRF-7" value="&lt;br&gt;Extract user data from API and pass it into Kafka.&amp;nbsp;" style="whiteSpace=wrap;html=1;aspect=fixed;" vertex="1" parent="1sTkTSWfPqv4WF1auIRF-11">
          <mxGeometry width="130" height="130" as="geometry" />
        </mxCell>
        <mxCell id="1sTkTSWfPqv4WF1auIRF-15" value="" style="endArrow=classic;html=1;rounded=0;entryX=-0.015;entryY=0.085;entryDx=0;entryDy=0;entryPerimeter=0;" edge="1" parent="1sTkTSWfPqv4WF1auIRF-11" target="1sTkTSWfPqv4WF1auIRF-12">
          <mxGeometry width="50" height="50" relative="1" as="geometry">
            <mxPoint x="130" y="80" as="sourcePoint" />
            <mxPoint x="180" y="30" as="targetPoint" />
            <Array as="points">
              <mxPoint x="170" y="80" />
              <mxPoint x="170" y="40" />
              <mxPoint x="170" y="10" />
            </Array>
          </mxGeometry>
        </mxCell>
        <mxCell id="1sTkTSWfPqv4WF1auIRF-12" value="1)Producer will send data, recieved from airflow.&lt;br&gt;2) consumer will read the data." style="whiteSpace=wrap;html=1;aspect=fixed;" vertex="1" parent="1">
          <mxGeometry x="370" y="130" width="130" height="130" as="geometry" />
        </mxCell>
        <mxCell id="1sTkTSWfPqv4WF1auIRF-13" value="" style="shape=image;imageAspect=0;aspect=fixed;verticalLabelPosition=bottom;verticalAlign=top;image=data:image/png,iVBORw0KGgoAAAANSUhEUgAAASsAAACoCAMAAACPKThEAAAAh1BMVEX///8AAAABAQH8/PyLi4t+fn5PT0/19fW9vb1KSkpFRUU8PDz5+fnd3d0UFBTz8/POzs7q6uri4uJmZmbU1NS0tLR0dHRXV1dtbW3CwsK6urqioqLs7OzT09M0NDReXl6UlJSDg4MiIiKpqaksLCwNDQ0cHByjo6M/Pz+ampqRkZEwMDAgICBPFYTGAAANpklEQVR4nO1di5aiPLNNjBdURERBFBtvaDf2vP/znSRVCYXS037zTytzzF6zbI0Yw7ZSqdopGMYcHBwcHBwcHBwcHBwcHBwcHBwcHBwcHBwcHBwcHBwcHBwcHBwcHFoKIcjz5w3jH8FmdcyyeOE7rr5DPOSIZPLssbQY0ozCXLHUkVB/082zh9RaCHbRPHHNlHoShM8eU2uxlwxpo+ogZ5yvnNO6hVz/Mg4cdcC2gDPntG4hxERZFYUmq3j2wFqJPhDEed49ZluYhfLl+7PH1UK8GXNa65ezJRpW4BzWDXp61hkHJQlK9ZTsSPfucIVPmIGxWfjE4BfYWe+542ohNkBMTmZcBk2j5w2qpZiAM+/VmxQC/2mDailC4KokTWhqJ8fVFRbg2vckTo8cV83YgGsfEQErRhf2zGG1Ev4BAtGwMqwRTMv0mcNqJxIM2geg8UF6qLg6koOEfXhphBiLjmb6pShBdOB8Ro/yV93leDze7sKXZmxk5Jj9arJ4/9DM0SkoHZlfFjazHh9f1sKETAiNHmp0Bm1WUXVE+MmpFjGKftfh/2NIq+kCE0bqA+KIzBBTovS7LyybppXUh894gm8JG0IAnfj875Ml/ol5LfRaSLiCvFngmwt+DXXEq+5eKNsJONmeOB1Z5b9zbpoNUeq4ba0HX2HQFOcL8nj91L6ext3tNi3fhO3Lb3POsNkdzPQ7X6jRxGb+Db3ZNIpz7fp5LXZlbN8JguC0NC8v6j3v/biQf6elnF5yeej24sE0mzK2WrEwy7I1HisX2e4Jf4etetnlqq/+Y077DyE8sJrSrzmPHM8jAxPw92BafE4/29OHDPHVhL/JY7fBSEmt71wGuWzPlyn3ZmpxTeZyyi/7RtgQm5F1AB/AFfTVav81BQOqy6ETnHc725LAUniakqN62tSMLaR6ZdgmbL9kolDx/1otBptZpOLb3pz1VOyGv4cYmlVWc8UkV6r/IWs1Grk66uWP55WlbTq3cQPYFXI14+/KfrY9Nt+y+LQ7MNbfa24iXh7jfsp6+a4b40fXJKz7p7hSo6xztQeuMjIl0LBouki4Eqy3ZGqGzaXtTdhnybjHDrF2WhHPx+MgYb1gObxgj334Ag3kiv+jXKVwKtSIMN66kCZqVxs+nucypthuJwO24v15p6+4U4YJczBV09BggO4viY9zUIGMv2o1GrmaA1cL0rT+HVfSNx92l11Qsrnkhw37u12XL1bStlgUad8uuZLu3djpBMI1HfpGpWptOVfaGW08VJNrYWYCXK3JHCyBK6o6E7va6MlZcrFMlYahdtL6W/l6vFTroHyZbGWneTGHHsMb59d2rtggXnIbc85XlBjNFdX9RsCVR5oIV7PYFyq6nIZvjC1WqvNoLdgkK0Pfjwcy0grZYr1eo/l6/Fr/aTlX7HiA0ABqZDgf2d95jZFoVQri3bRcrYPajeMTfLRPCITpX3FFApAWcyVPYNPnNnk2uQwkhCJD8nixgZNmUCmC67tBnav/Ag++blC1tJgrs5NDuVKPQ/lTK90KW3igJ41/hJar0pD/mSuS/rWXK6MjVJVqHYx3PiZzjnIVNHwm+7QwLcGA9vIaXLFNYKLmKn7mRKnihkr6whTVGLwEV4ItbdzcL1dhGCcdK5JSIcaW/XGUAmt++iW40uucPvv+G7ZMLzWDkkFnn9vaSGQsvVIBXsK3+8Z7d80eoHxcBGRV3EbM147LmBSHRfLv2tW/wJWHVkUTFoG1M4qdTwgZtWxq5uTnbRHbF1z99rIVG1/9nqsmGes50tYcDKauCAvm8arSCMwt7uOk3K7Y7WBrXN3uMjSeGxy2/iN/Ja7+PoI9H41lcv1lW+PCcSgqbVl469VkcNOHwpVdzSYI0xC9z8eH4iPxBvZdvce4mbwDV4uq7Yor25cZ4eyYjovDR7ImfT3C0BZgPvObN7Aq63DnFkFNv9K7/hoocUWpXSp+HaGAgvOxemfPa7jWZISoKn9LyJ2ixB4dlEZwfkh9eQyBU3zzxiCAd2YNH2pAjStLlQfz7MhtzCb/LJVir4uYmNZAKVfYRuzKbripIcreYtMX5BabsuL9p7HjzddICDb84p1mUP0qxITRCBE7cnqqy/Fcn2iNK1x0b7hamL5ioL3kuCAj8Z+pbngIVxf4yob6hDmc2X/kShCrwtXy/eqqDJMVEF6auRLC1Bxa2rFYoFNZFlD5VK4EcPUHdmWpCmFxeqvSpcPBzsRrrhAfVdsQMlUI6JD2SXXkuTjZWf0grsovSjkEG/8ZV3YC6i6lMx5j1c3YU8tE1LWKouYqG+P242g4Go0+0pqG/GbICHFMIyypyNe6rwtu6z6IqzUMJrt5Y4PDvLNswXAV4tw4LTAIidFJ7aFkUNrGGVuwen4FXJn1lnD1hr7J/pIrVIMSoaU1uSYWj5yDE5jxt9+FMtW9gwCuliH678CaIy4RMqbVbOi9HF5xJa5yHGG5sn11TJ5qdsdMgCOPnZ3543w7O8DA11exqJ/DQLvVKcy8bpL0LqtGSwOuCnS458h0F0FLQSNY/BnQrr7KB4sAOFUWCp1toK9gSoYaP9Cu2B44Ka4Y6Jr13aR+4dyuY+niphfgyixRvyKb5mA4dKxlhod7uEKrOk9sX6jzl7W+cv2Vj+HKLDXDAc2xjnYVVzKD/EmBKavF3yQ6PbuIS897sydz5fW6d3PFC7JC76C5Hh1ftEt7DFcMt7r4BxnVpbZTsfcXASFKtRWzRv0K+KTb+fMmd+Lpzu7gqr5fC4lSUc+6Vg/0V0Z+kePqwi/mezknXCn3Y19yo2GdrsgiXHVoZdaSU2+MeLufK7oJudQmdKX7RA/kSoAVw87WR2+/31L5vYPBkVX5jNjH8/rPS+2KTpOlbqsrPpjj3eevSJisxW6+rPc1e6RdKfnFOqeaV+JDYl90Z0I/7mt91Ln68EnfN+oYSgffcgW/Uz6o+rJpUIXJY7ny+xjImM0utP89C0eUrKDrheuenbI1yQvXwTGeoN25gNT2s67+re/iaoyWZctEdP0v/3Xjrx62DqrYCeV0ig6WdhxPMP9URQNso8+G+Lp2hS/YVS66mIWYRAA1hvra1buHq8Lf4VfvkKsM+qrLkpeHcqW+OkNbsv94EapkTrBpD+0IFFJ1uckQI5/BtV0pnQFtlFeVHTcxkX+6h6u+1WZNoAz5kwyPaV+FphO4msaXrCH2+7uQyUJizAlceOabEDCEWUW2mSc4R+mwbO48O2HuDKZkY21yLJYkfc/V9IwSBZiSj9a/ISI7BIKKKyGndnf9nt9KvH8XWk1/H55gPQyWMbkFFioRl1rQpH9vKqZauwKhQQ3fx2P1+ZIzMKLwN1wprc9sJx2A6gSIJ1GDOUDZVXjarOIN2//8VY+KiRkECV7tjR7HOVVxhdsJu9pRaAt6PuvxK31FMJMBJ4aM0LjG77kSurBXfVrXvYNIqry97euMDkJxNQzZsJS5WvGQC6umTVzBpTpNNZBd0kT3cVJ0/uCkthiiFcdo4M9W1S7FHXaF99kAJyWNP0XqfmWqr9BeRaS48g+CLSfDiF1oze+PAbmq75RCkFBrzH5rV8Ifo8vStigdmBFGgzPHNeRursQI6dF32tgENhg+n+1yBFwNCiXaSJ6yh9wHp7G+vQQnRkNPCMYb/ZVGZExHJ0IrnDkGJoi7iys2w/0kEGhDblIMzq0oirGodGrLUjqr9CHX6zXaFRbckhDJOOfGdVBjhdaTD9TMMdUlJvwv5vfoDGCjZq2Qn5oqn7UyDGGqWlTJ+aXH0kFvPTk/ZAPfb+IKC7lVHgZRxCCHlto2a/16HJumQK3x4mDZ4mZ/8Jqrr+tFMcTgS/31i5z21Z+a/UG5jgyTjRBr/uMRlkLYA4NOw1p5wBzXmj5Y1uITXXctJtyra7MCzGvlSW1P6nWAdd0iO5gZ+OGx+oVcnv5kdXGPSubpNWPSo3egLwhbxNFeeZ2vVWKgDgbes89DMI/Yz9uVB/kXzB1StCcWNgNMjuvj1moNDYMyVyNVLb6AZhFmyXabqrDaFCnrv7Zg+csqjqpdHaOPfytVX+WCfFxAr/7t5/82ZCpTScT633xaVbsklRJjjunQ675eDFFhVyq0rU8T0Qk2+OTVHQ9h/nXaennfTxuVYJtfmAqaG2fqrRf7vVFV5mdWMxkft5KrH4awdR6QNpsZZ1M4wSKqKuudjM0/ctn7X4a+f4yJFs8nE+SR2EEwXObNRN09qwrx2RADw0Jf3SrGVBxc7TlHPXP99lntYbwmVWYzECqR1dK7MEpolSyoZj887i7l8e1VadIYWg0F6zOMjkKFBPHF89cCZsycrGxYktnuWyQ8A3BTAb4l5oL1Zu4+kNdAyZ/uhs9w1Wuuz35hIFc70oT3zKTJv4MCbsvM3Rz8Hljt2CG+vQfSZQsvH3o2xhAhVPvIZgOw+5sPvSh2GIseMXJSooNuCV84kvoCM+SKp+ryoKkqYdCG9vH9R18PPbvRki+HHbvt4m5134Cp/f9eqPDp7vDbiDfDT8UVHw+cs2qEZ3ccjD6TT51jb4RgYXULX43UhexfQNWk0Suucu+VhZc7MMv6WvoskpXj6Xv4s0k0E86m/gMcVQ4ODg4ODg4ODg4ODg4ODg4ODg4ODg4ODg4ODg4ODg4ODg4ODg4ODg4txv8BEHyZC6hro2gAAAAASUVORK5CYII=;" vertex="1" parent="1">
          <mxGeometry x="390.51" y="100" width="88.99" height="50" as="geometry" />
        </mxCell>
        <mxCell id="1sTkTSWfPqv4WF1auIRF-9" value="" style="shape=image;imageAspect=0;aspect=fixed;verticalLabelPosition=bottom;verticalAlign=top;image=data:image/png,iVBORw0KGgoAAAANSUhEUgAAAWoAAACLCAMAAAB/aSNCAAABs1BMVEX///8Ax9QArUbkOSEBfO5RUE8R4e4E1ln/dVcMtv9OTUxCQUBGRURKSUijo6IAw9HZ2dm3t7Z5eXjKyslpaGc9PDrm5uXDw8NzcnEMuf8Ab+0Ac+35+fnY2NgAeO47OjgAqj1dXFuNjIzw8PBjYmEAvP+UlJMApzDjJgD/c1MAsv+mpqUS5Pecm5sE2k3kNBniFgDuKQCEg4P/bUkGkvR5rfQM1+QDyVNWv3bsg3nyrqj87evjLArpZljmTjuC3OTd9ffm+PrA7fFt2OEFjPIBid4BukydwvbV5fvB2PkE3EcEtWU/uGXl7/0qtFns+PBRl/HG6ND40c7mUD7paFvti4Lul5D0urXrdmr2ycXlQy2Z4+m36+/9kHvzsqz/hGr63duncYyBiLOxaHxzkMHVRz9js7gsKynOjX7MT1Dfg22SfaCymI9UxP9hmc+PpqRHpOF5z/8InvjEV16IaX+RPzMygqtNQTQhh486cndIUEBNODYqoKkDwYZNPkgDvI8I3toDtJ8DorsEynOxzvgLy68CkNQCm8WGtPUCmMkKyKWO6aeo7b3a9+Oz4cGX1al2yo+zAaHfAAAS+0lEQVR4nO2diX/bxpmGIcmQJQAj8QJJSSApHrpCy3Io16fiJI1y+4js2LHVw2nSrttuu1t7t9vubtMkPXbbbG35T945AGJmMAMORuAhQ29/TQQSxPHgwzvfNzNADONUI9Pdw3v33njj008fPrx6/8GDa9c+e/To88+ve6M+jDffHPUeR6+HezuB9pA2sS5c2Ln36dUH1x7dvT6So3hncfH7I9nROHV9c2dGKMweUZ954/61R8Ml/s7iVAZQG9d3JKxD6Aj5hXtXr90dkq9A0plArcDaj/K9zQs37n+Wfny/CUlnA7VxfUaJNQnwzQuH9x+luntMemrxrVQ3OqnyDpVZE9ybD9OjTUhnBbXh3UjCGuHe3Lx6N5Vd+6Qzg9owkrJGtA+vHX+/P/BJZwi1cS8xaxTaD46Zk/RJTy2+nc55nATd20vMemZmb/PBcfYZks4UauMNHdYzmzP6LSRFOluoNVnPXHio6SI06anFdM9l0vWpHuudPa1k5Ic06ayhNh5uarGeuaCRi7CkM4dam/Xm/aR74khPTQ3jdCZaV3VZP0y2nwjp7KEeEeso6QyiNu7rsv6R+j4EpLOI2ngwdNbfF5B+Z5inNLF6cEGP9YwiaxHpjKLWZb2zq8RaSHoxA8O4Ql3TY3249XjwtoWkp6Z+MPyzmkz9WI/11mDWEtJTPxzFaU2kPtNifWNu63F8h8hbEtKL2UWtx/pwbm5rLo61jHRGRnEl0mI9F89aSjpmEKbcam1rnUATrGv9bgx6pMF6C7OWzV+Qk47prq46oFHROf6GVdL52Vh0NznrG3OI9ZaY9dty0vKOvbZrmlZV5/DdE4RagzVGLWH9thz0lLwu7zqWaTbaGkd/olAbd5PW6IdzUtZxMR2D2rSsogO69EflXJldohoHL/wSo27ncp70pxOlz2WTJ+NRz23t8qwHkJbV5TUbbBvAMslSu9GoVEzXtt2gxdu24VKj6gPMVRvwO7CAF1yr2i7B5UbPh+210C+trjGZSsg6QA1Zf85sJ9495HV5C7hlYxvYNbxUds2m49i2YznYHDzTAbYDF13MutKwgO3CL5sILlwX4HWBhVm3AVx0bGBrOf8IlJD1nJj1ANLSutxzrQ4iDFp4sWybpt0tl/PAtPNwed1xWm3Dy9u44Ww3THu73C42Lbw6bE/t7Vy54i8aHcvueka5CuyFYQI7hhQnqnJRDUWxHkhaVsHkHQchLVkuDkyI2saJX861LPivQqOAVyvg77eBg83Bc6yGh1Dj3xptx0TfFm3fWJqWPRxSx1cS1jTqud1gIH0gaWkF0yGMfeIQtdUkX1SJZ/guvADsMg5bsty17TZCDci369h/4D9JHpN37GL6lNJRgknBDOqAtTeQtCytDpyD+AhCHVSAXeDzKlcWeiXLRKid4DoQ9ZM9eKGK6M6wckjl4LpNpNRZs6gJawXSslwPtoc5/Mc6wEFcDkwA4UNOksfpiAswaq48pFFXkG+YcE0o2GxOqllDXT/cmdnb3Bw8I+fGHMf6kRppSa7nmFaTyASoI4RBDSO1gPKJ7XxuHRuIH/qBuKiGqJvBxrQK/RHJu7H5ky+++HLn9QHhvTsXYa1CWpLrFW3TAkSW6Ri0gSwg/624VgG7M0HdT7+NMroFONRVyxkuo7TU/s3a0tLa0k9/9nos6i0e9dzuP6mwFvdWVy3QaxGVLOTNsFn0acL2sm30gN8OwqSijNzYb/hajSflCOp+cm60dcr80WltHmtp7YvYPDtCem7r5ypR/ZZon203bOfKMIBxskfyuQpORVo4mBFL7NVdh8Q8LHRQOsehhvkhqV1KjSeTzHppPtDS/C9iAluA+pcqqIU77QIqVehYjTZCbdmFSmXdNl1Ir+haZj5Xa9kkA/GA5RQqxS5sJJGjc6iNAgDVWrnYAWCSu6FC0lBrP5GyPtSManECYoFG2FWUt2E8QwOpOlDAIp0gLReX3k4pSFAcgL51e+jLBugEP8V1j9eBjagN/18a+WPd6lqbZ7T2hYw1n4Ag1AsKpMUJSKFE9Qx51VIeNYvddg807JKfQ1RKtmv1yrVOFePztpsw8ysU2Z/XSiXSHZWHazvVSU4/fj3Pae2nEtbRVnFuN75Hj0h1ZkKY7L2aipCWs061VRToFUctIC3zEIFVKwW18jT2Vxv1r18ToZ5f+2cB66hVb/1KgbT6fL1yw9YbPT8JkpCGrL+MDoZFrHrrsQpp9UlkXq9XG+bZjlNS0jDB/kWkltGzjyw9iCtXDGkovvcp4h9qRXk2Z7Fziie99C+cXfP+sfuvaqQzOrWaVjxpVDayds2TVilepjI+XY9oEGkY1z/bkfuHKunsPbEY0dOBpOeXfvO61D9U3ePUP1RIcxbCZHlbii3iGP2jnatBkQG1NvxrXPOeCOmlvmRxHb6KiPaPrcdKWR7ROE6v3S25ro3UQOVn7Qn868l4xtEh6aWl1549u3hxH+rixWfP0AdR4FQWQpuHUsepH9QpPG+UKyG11H+w3UCTLrHweEHegX+Np+Z/Or/07OKZer1+xlcd/b2PeXMW8m87fP/HlrpNT6m+ByS/jrQtGT2pAgvKVe4dLTlmX2NG/fQ1yPlMVJA3xM3Q7reM/UZx95cJzEOxUcw38FiuY4m/ruIQVZ7dUQUhaROMFfXTiyLOfd5nLtK0177co/1jSznH84P6LZUjMv3bXTItKRnqik0Y2w6+fGiT40L9tB5HOkobh/WuD/rniUJ6Sq1RrNnB3d4Tfp8MdROvbfdy4UdjQv3+8gDQPm3oJH7CtxcE9e5j5RQvUVC3+nd8QzgsWHUSeHXZxTHNdMaOB7UaaUx7/xkJ7dd3dm7gXDpJc0ikVr64fWcVR26uiqT4PBfGalrRz0aNWp00Ce35pfm1f//tbxFopVEALqiV0o8KhoMjm50AqaVttCHuObtxoP4wCWkEu37xtf/4neOAuV8lNWlEWm1MoITMFeQxazc3eP149UD07hgD6lsJSWP9DrXjv08OekqxUCTm6hrrgnDUUAFdOIdNZcaAWgO0j/o/NUArvsUQ3/Ew98jhPOTYM/4nA/X3BmV5UdWX3/0vmJ/+9x80SCv2M4Ego8ZZmnPcGTMTgfqD5Pax/O5XH70H/vjH38/OXkpKWnHwtoiDGT1rgYEc+7nPZKjbtUo+n6/UUp5QuZ8U9Mr+1+fPnj373u3Vb2ZnE8JW7mbCaDCGNjFtQWfneqdU6hTZ5RJuQNuV9QL8u9OF1wx3SpVILdQs0WqaQtTl7aZrozmCju02F9j9LqBd8IeC+734hruG9s82w39ZSQj6zLfnEenL09OrH5+bnU1EW5k0zTekzp1hA5UwFruM5pu2e66Du6LQNNYm+cuvOxmZItTlqguC/j/4A+D2qND28C741BOVUgBwH+I9PGE+SmbU9eU/nUWgYVBPT09vfDM7mwT2ovLQS5dyjdBLONSkcGeXrY5RdPtlpl32C3K5ONR5l18f0PUo3hp3h5EOBJsNa5xAsS8keD9RUC+/+2cC+uxZSDoMa0Xa6oNcJt0WOkELqYK6lGuEmBKjXneDaMaPhxC54dTYBUF6jnOlyCVzIismCumVbz/yQeOgpsNagfYlddIkUFz6XKJ9TkLUZtNnFRhI1cW267uFQyuKqEs2adlmb6G70LNs8jM3z+yDe3sG6YC0TOZDXIC5dLOaxKlXwpAmQQ11+9wsq0sy3JdmEwzctpi6hVQzkT4nMWqCyu7gDhIYjl4FqUhqz4UKLVIdUahr5Iawq4EZFJtkOKHRtwyM1aUPJdgtYyse9g/G1PcTmMcfQtCoUSRh/VeetYj3pUvwwwSk8YFS7texordtDGq7Gp3ip5Tskfh06ZcstEg3Vf95PXx5GDNb8FsG5pUauAOH+UQ9p67Xv6JI+/6B7FpAOiR+CUMmimPLiaTSTekykQy1K3ofhQpq0vvHPUna69dSWLiNBvSAZtAYMI9P4tuSaSmVC8X6/mWadOAfEPVXorAWSMpVIBLFFDGS+nGpqwS1+KFbFdQYWqRYIk7ct2e+M5akGnxiQnol6c2oOvXK/zCgw6COtIxpkPa9mWpTWqI+JzFqrnkKpIA6R2yLNx8S6/0Wrmex8doF6EKgpoByOHwozPF+qIh6+X8/YkiHQY2UNmk/4yhQn9REfU5i1JIBMAXUXSC8Uh7ZbJBc8y6M7kCQx8DD+2Eh4uiK/hEhfZkmrWIhMqhiCfJoJs/2JUZti6crKaAmVWm0u7bKfE5yi74v4zvQLeN/hfchqXTojagF9QpPmvYPbCGDWMuYiiWqDknEsfmsBLX48UQF1E1hnhPcZP19V5mMGW0DNdgm7SC4W4EpBNT8Y+XvPGnWP+KzkOSk/Shin35pNxjDxEobNZtqcKuF+Q9bByKTRnayAKjLQVah78G/qfhH/d3zPOnLPOqPY8NaDlUocU9eNdrnlDJqT9SVgVRkkw6SchSog0XHincelDZ4Z0zJta8S1PXLPGnOPxDrr2NYx2EViXgFn3IJXCVt1K7E6kmbHL7rAhuNHW6CBDzdmLj8GSgNKS5/HQlq3j+kRaMWab8FjFimHcnERos6TH/o9ALdbGQLyNH9WMdhwZyBilXXo0YtQi1vGuVIJeJjiDlBQDc1KaNuq6KmkmZ8eUhpRTkILt4ZB1RJ9Vai9hGx6jjWMUwlIoWwWahywv1FjAGOK6qxV5D8GyXZQSYO+g4CTI2upvqfovYRtWri1yLWingpeUGHcUT4Y/q2HFmzyDcTYdSirQa5EvoU33Uk6pkWXMGql/8cJS3yDwlrjTdw5KlJ0ALRwZJ2sudEWgMiXB/SVWTfi/HVCS4ODn5UtnQjXU0fKFj1vsCpZaijbaPOu046AwZNqD6ntFGTia3RWRD04BuR7X9ALkLwKVpArSXpLKO3oDDUVf+7wD+EVk1Yf3fuuKRJT5PAPgILoQrntFGT0YNoD2wrMgiEu5xgE4jalbDWQuuBFmlemW5WlVZRiFps1cRDPp4NYWv9p1jXyXTIkkj+DOn+ummjXhcU/0ikkYh0/MP4txnHwQ7ikC/ZonN/sH8IDSQG9fTq6nc+7HN6/9Fbh4tcWiQbC+/wtFFX2N5SbrO0h3skcDFbqrnEjHO9SFeTSqt4ZvlblQKGgT393Tfnzp375qXwhAfJP1vJs4S4OA/DLm3UJAUB/KtHCsS4okditiw2LLCDrOODpHuAjVsqfU31W/8XYR2PGsLemP749sbGFTGueBGYHcm3XNiljToY22IvdFF0AfyJ8Vy041UFT40o1Yq3DCPCehDqgPhNCbAY+RYhfbqFnHXgmqmjJm2yZdEW4u+Es5Vy/4kGJtPoD9mzq7+v0CreQivyrBVRT6/elhGTqkvmrUtTF7/RZClwVI6B2n/6xgLhank72igiBWO3bKbhV7p8Z9ngBISQNox/MKzlud7xWeO7D8ifry0zo3/po/b8x/fsTj7X9tq5rj8NJPriyWBGAptpFP2w5q7MJ4NQr9wKVmVYq6NOzLoWbes54eog6HNKHzV+0S0OS8d24f/8qWSWGdlmMBGCG+4Uzb4ZPINs5YNw3X8IJtsosZ6+I8cWVU88jsrDCRxmCKiNskU/s+vHaFOwSUvgH4GD8KcwINejSTOsk6BOyNoV2iItD497+e2mPxmh/2VtIGp7IGrD67ksbNAQZvmk2XC54bGKKF0ZMC7AkjaMF+e1UCdjbeIXSMTW8+uN8L0SbfR3IyyY8bIryRS38cpsHiF+SUWuh5zDslDvALDtljjJb6NjdSMe3sSnwO4mvrNp+QN+G33WyVAnYu3VcrnagJ4T/J9ooNanO9Da3DL/w8jzFuVaTvTqFa+4UECPGZR6XfnLQjzqQLjj404hdgpqlLRhHNATqxPBTuTXr6Di0moR6ZB1UtSZZx0zMUFM2jCen9dDnXXW8gpm+UPZbwjruJ49iTaej/LUJk3SCkZOGrLWaBdPWe9rkPbjWgP19MbBqE5s8iQJ6njShnFHE3WWWYsrmOW/DPrdHT0HyTBrT4h6MGnMWgv19MaL4Z/WJEpYl6uQRqw1cpAMsxYNd6mRRqxXT1mrS9AFsvy+8q/fO2WtrujIYgLShnFbl/XR0M5oYhVBnYj0KesE4jv2EpI2jJunrBXFdewlJm0YVzZOWSuJRb38N41NHOmy1pv4dGLF9KGu6JA2jINVPRPJGGsatSZpWHJqmki2WFPd1dqkoQ6mtWBninWIeuV7x9rQCy3Yq1qTJ0+m+qiPSdrAsJN7doZYB4MwxycNdXAlOezssPZRp0Ia6s7R7aS0M8OaoE6LNNKdo5sbibI/nQnYJ1GfYNKfpLvROy9eTifArTEB+yRqfwiksSDumxuQtwrwbLDeHxJpoucvjq5Mbwwmvnpb59nGE6b9M/Xhkfb1/ODo5ZXbqxuEuZD66vSwD2L8+mR56KT7uvP84MXRy5dXbhLsvjD91Y1Xf46ZN2C+x9B0B+r5wcHBC6Sjo6zOWDhV+vp/CZbNZMTKfGcAAAAASUVORK5CYII=;" vertex="1" parent="1">
          <mxGeometry x="175.20999999999998" y="109.99705882352941" width="99.58" height="38.23529411764706" as="geometry" />
        </mxCell>
        <mxCell id="1sTkTSWfPqv4WF1auIRF-26" value="data from the kafka will be processed and then loaded into the database." style="whiteSpace=wrap;html=1;aspect=fixed;" vertex="1" parent="1">
          <mxGeometry x="585.21" y="130" width="130" height="130" as="geometry" />
        </mxCell>
        <mxCell id="1sTkTSWfPqv4WF1auIRF-27" value="" style="shape=image;imageAspect=0;aspect=fixed;verticalLabelPosition=bottom;verticalAlign=top;image=data:image/png,iVBORw0KGgoAAAANSUhEUgAAAWoAAACLCAMAAAB/aSNCAAABs1BMVEX///8Ax9QArUbkOSEBfO5RUE8R4e4E1ln/dVcMtv9OTUxCQUBGRURKSUijo6IAw9HZ2dm3t7Z5eXjKyslpaGc9PDrm5uXDw8NzcnEMuf8Ab+0Ac+35+fnY2NgAeO47OjgAqj1dXFuNjIzw8PBjYmEAvP+UlJMApzDjJgD/c1MAsv+mpqUS5Pecm5sE2k3kNBniFgDuKQCEg4P/bUkGkvR5rfQM1+QDyVNWv3bsg3nyrqj87evjLArpZljmTjuC3OTd9ffm+PrA7fFt2OEFjPIBid4BukydwvbV5fvB2PkE3EcEtWU/uGXl7/0qtFns+PBRl/HG6ND40c7mUD7paFvti4Lul5D0urXrdmr2ycXlQy2Z4+m36+/9kHvzsqz/hGr63duncYyBiLOxaHxzkMHVRz9js7gsKynOjX7MT1Dfg22SfaCymI9UxP9hmc+PpqRHpOF5z/8InvjEV16IaX+RPzMygqtNQTQhh486cndIUEBNODYqoKkDwYZNPkgDvI8I3toDtJ8DorsEynOxzvgLy68CkNQCm8WGtPUCmMkKyKWO6aeo7b3a9+Oz4cGX1al2yo+zAaHfAAAS+0lEQVR4nO2diX/bxpmGIcmQJQAj8QJJSSApHrpCy3Io16fiJI1y+4js2LHVw2nSrttuu1t7t9vubtMkPXbbbG35T945AGJmMAMORuAhQ29/TQQSxPHgwzvfNzNADONUI9Pdw3v33njj008fPrx6/8GDa9c+e/To88+ve6M+jDffHPUeR6+HezuB9pA2sS5c2Ln36dUH1x7dvT6So3hncfH7I9nROHV9c2dGKMweUZ954/61R8Ml/s7iVAZQG9d3JKxD6Aj5hXtXr90dkq9A0plArcDaj/K9zQs37n+Wfny/CUlnA7VxfUaJNQnwzQuH9x+luntMemrxrVQ3OqnyDpVZE9ybD9OjTUhnBbXh3UjCGuHe3Lx6N5Vd+6Qzg9owkrJGtA+vHX+/P/BJZwi1cS8xaxTaD46Zk/RJTy2+nc55nATd20vMemZmb/PBcfYZks4UauMNHdYzmzP6LSRFOluoNVnPXHio6SI06anFdM9l0vWpHuudPa1k5Ic06ayhNh5uarGeuaCRi7CkM4dam/Xm/aR74khPTQ3jdCZaV3VZP0y2nwjp7KEeEeso6QyiNu7rsv6R+j4EpLOI2ngwdNbfF5B+Z5inNLF6cEGP9YwiaxHpjKLWZb2zq8RaSHoxA8O4Ql3TY3249XjwtoWkp6Z+MPyzmkz9WI/11mDWEtJTPxzFaU2kPtNifWNu63F8h8hbEtKL2UWtx/pwbm5rLo61jHRGRnEl0mI9F89aSjpmEKbcam1rnUATrGv9bgx6pMF6C7OWzV+Qk47prq46oFHROf6GVdL52Vh0NznrG3OI9ZaY9dty0vKOvbZrmlZV5/DdE4RagzVGLWH9thz0lLwu7zqWaTbaGkd/olAbd5PW6IdzUtZxMR2D2rSsogO69EflXJldohoHL/wSo27ncp70pxOlz2WTJ+NRz23t8qwHkJbV5TUbbBvAMslSu9GoVEzXtt2gxdu24VKj6gPMVRvwO7CAF1yr2i7B5UbPh+210C+trjGZSsg6QA1Zf85sJ9495HV5C7hlYxvYNbxUds2m49i2YznYHDzTAbYDF13MutKwgO3CL5sILlwX4HWBhVm3AVx0bGBrOf8IlJD1nJj1ANLSutxzrQ4iDFp4sWybpt0tl/PAtPNwed1xWm3Dy9u44Ww3THu73C42Lbw6bE/t7Vy54i8aHcvueka5CuyFYQI7hhQnqnJRDUWxHkhaVsHkHQchLVkuDkyI2saJX861LPivQqOAVyvg77eBg83Bc6yGh1Dj3xptx0TfFm3fWJqWPRxSx1cS1jTqud1gIH0gaWkF0yGMfeIQtdUkX1SJZ/guvADsMg5bsty17TZCDci369h/4D9JHpN37GL6lNJRgknBDOqAtTeQtCytDpyD+AhCHVSAXeDzKlcWeiXLRKid4DoQ9ZM9eKGK6M6wckjl4LpNpNRZs6gJawXSslwPtoc5/Mc6wEFcDkwA4UNOksfpiAswaq48pFFXkG+YcE0o2GxOqllDXT/cmdnb3Bw8I+fGHMf6kRppSa7nmFaTyASoI4RBDSO1gPKJ7XxuHRuIH/qBuKiGqJvBxrQK/RHJu7H5ky+++HLn9QHhvTsXYa1CWpLrFW3TAkSW6Ri0gSwg/624VgG7M0HdT7+NMroFONRVyxkuo7TU/s3a0tLa0k9/9nos6i0e9dzuP6mwFvdWVy3QaxGVLOTNsFn0acL2sm30gN8OwqSijNzYb/hajSflCOp+cm60dcr80WltHmtp7YvYPDtCem7r5ypR/ZZon203bOfKMIBxskfyuQpORVo4mBFL7NVdh8Q8LHRQOsehhvkhqV1KjSeTzHppPtDS/C9iAluA+pcqqIU77QIqVehYjTZCbdmFSmXdNl1Ir+haZj5Xa9kkA/GA5RQqxS5sJJGjc6iNAgDVWrnYAWCSu6FC0lBrP5GyPtSManECYoFG2FWUt2E8QwOpOlDAIp0gLReX3k4pSFAcgL51e+jLBugEP8V1j9eBjagN/18a+WPd6lqbZ7T2hYw1n4Ag1AsKpMUJSKFE9Qx51VIeNYvddg807JKfQ1RKtmv1yrVOFePztpsw8ysU2Z/XSiXSHZWHazvVSU4/fj3Pae2nEtbRVnFuN75Hj0h1ZkKY7L2aipCWs061VRToFUctIC3zEIFVKwW18jT2Vxv1r18ToZ5f+2cB66hVb/1KgbT6fL1yw9YbPT8JkpCGrL+MDoZFrHrrsQpp9UlkXq9XG+bZjlNS0jDB/kWkltGzjyw9iCtXDGkovvcp4h9qRXk2Z7Fziie99C+cXfP+sfuvaqQzOrWaVjxpVDayds2TVilepjI+XY9oEGkY1z/bkfuHKunsPbEY0dOBpOeXfvO61D9U3ePUP1RIcxbCZHlbii3iGP2jnatBkQG1NvxrXPOeCOmlvmRxHb6KiPaPrcdKWR7ROE6v3S25ro3UQOVn7Qn868l4xtEh6aWl1549u3hxH+rixWfP0AdR4FQWQpuHUsepH9QpPG+UKyG11H+w3UCTLrHweEHegX+Np+Z/Or/07OKZer1+xlcd/b2PeXMW8m87fP/HlrpNT6m+ByS/jrQtGT2pAgvKVe4dLTlmX2NG/fQ1yPlMVJA3xM3Q7reM/UZx95cJzEOxUcw38FiuY4m/ruIQVZ7dUQUhaROMFfXTiyLOfd5nLtK0177co/1jSznH84P6LZUjMv3bXTItKRnqik0Y2w6+fGiT40L9tB5HOkobh/WuD/rniUJ6Sq1RrNnB3d4Tfp8MdROvbfdy4UdjQv3+8gDQPm3oJH7CtxcE9e5j5RQvUVC3+nd8QzgsWHUSeHXZxTHNdMaOB7UaaUx7/xkJ7dd3dm7gXDpJc0ikVr64fWcVR26uiqT4PBfGalrRz0aNWp00Ce35pfm1f//tbxFopVEALqiV0o8KhoMjm50AqaVttCHuObtxoP4wCWkEu37xtf/4neOAuV8lNWlEWm1MoITMFeQxazc3eP149UD07hgD6lsJSWP9DrXjv08OekqxUCTm6hrrgnDUUAFdOIdNZcaAWgO0j/o/NUArvsUQ3/Ew98jhPOTYM/4nA/X3BmV5UdWX3/0vmJ/+9x80SCv2M4Ego8ZZmnPcGTMTgfqD5Pax/O5XH70H/vjH38/OXkpKWnHwtoiDGT1rgYEc+7nPZKjbtUo+n6/UUp5QuZ8U9Mr+1+fPnj373u3Vb2ZnE8JW7mbCaDCGNjFtQWfneqdU6hTZ5RJuQNuV9QL8u9OF1wx3SpVILdQs0WqaQtTl7aZrozmCju02F9j9LqBd8IeC+734hruG9s82w39ZSQj6zLfnEenL09OrH5+bnU1EW5k0zTekzp1hA5UwFruM5pu2e66Du6LQNNYm+cuvOxmZItTlqguC/j/4A+D2qND28C741BOVUgBwH+I9PGE+SmbU9eU/nUWgYVBPT09vfDM7mwT2ovLQS5dyjdBLONSkcGeXrY5RdPtlpl32C3K5ONR5l18f0PUo3hp3h5EOBJsNa5xAsS8keD9RUC+/+2cC+uxZSDoMa0Xa6oNcJt0WOkELqYK6lGuEmBKjXneDaMaPhxC54dTYBUF6jnOlyCVzIismCumVbz/yQeOgpsNagfYlddIkUFz6XKJ9TkLUZtNnFRhI1cW267uFQyuKqEs2adlmb6G70LNs8jM3z+yDe3sG6YC0TOZDXIC5dLOaxKlXwpAmQQ11+9wsq0sy3JdmEwzctpi6hVQzkT4nMWqCyu7gDhIYjl4FqUhqz4UKLVIdUahr5Iawq4EZFJtkOKHRtwyM1aUPJdgtYyse9g/G1PcTmMcfQtCoUSRh/VeetYj3pUvwwwSk8YFS7texordtDGq7Gp3ip5Tskfh06ZcstEg3Vf95PXx5GDNb8FsG5pUauAOH+UQ9p67Xv6JI+/6B7FpAOiR+CUMmimPLiaTSTekykQy1K3ofhQpq0vvHPUna69dSWLiNBvSAZtAYMI9P4tuSaSmVC8X6/mWadOAfEPVXorAWSMpVIBLFFDGS+nGpqwS1+KFbFdQYWqRYIk7ct2e+M5akGnxiQnol6c2oOvXK/zCgw6COtIxpkPa9mWpTWqI+JzFqrnkKpIA6R2yLNx8S6/0Wrmex8doF6EKgpoByOHwozPF+qIh6+X8/YkiHQY2UNmk/4yhQn9REfU5i1JIBMAXUXSC8Uh7ZbJBc8y6M7kCQx8DD+2Eh4uiK/hEhfZkmrWIhMqhiCfJoJs/2JUZti6crKaAmVWm0u7bKfE5yi74v4zvQLeN/hfchqXTojagF9QpPmvYPbCGDWMuYiiWqDknEsfmsBLX48UQF1E1hnhPcZP19V5mMGW0DNdgm7SC4W4EpBNT8Y+XvPGnWP+KzkOSk/Shin35pNxjDxEobNZtqcKuF+Q9bByKTRnayAKjLQVah78G/qfhH/d3zPOnLPOqPY8NaDlUocU9eNdrnlDJqT9SVgVRkkw6SchSog0XHincelDZ4Z0zJta8S1PXLPGnOPxDrr2NYx2EViXgFn3IJXCVt1K7E6kmbHL7rAhuNHW6CBDzdmLj8GSgNKS5/HQlq3j+kRaMWab8FjFimHcnERos6TH/o9ALdbGQLyNH9WMdhwZyBilXXo0YtQi1vGuVIJeJjiDlBQDc1KaNuq6KmkmZ8eUhpRTkILt4ZB1RJ9Vai9hGx6jjWMUwlIoWwWahywv1FjAGOK6qxV5D8GyXZQSYO+g4CTI2upvqfovYRtWri1yLWingpeUGHcUT4Y/q2HFmzyDcTYdSirQa5EvoU33Uk6pkWXMGql/8cJS3yDwlrjTdw5KlJ0ALRwZJ2sudEWgMiXB/SVWTfi/HVCS4ODn5UtnQjXU0fKFj1vsCpZaijbaPOu046AwZNqD6ntFGTia3RWRD04BuR7X9ALkLwKVpArSXpLKO3oDDUVf+7wD+EVk1Yf3fuuKRJT5PAPgILoQrntFGT0YNoD2wrMgiEu5xgE4jalbDWQuuBFmlemW5WlVZRiFps1cRDPp4NYWv9p1jXyXTIkkj+DOn+ummjXhcU/0ikkYh0/MP4txnHwQ7ikC/ZonN/sH8IDSQG9fTq6nc+7HN6/9Fbh4tcWiQbC+/wtFFX2N5SbrO0h3skcDFbqrnEjHO9SFeTSqt4ZvlblQKGgT393Tfnzp375qXwhAfJP1vJs4S4OA/DLm3UJAUB/KtHCsS4okditiw2LLCDrOODpHuAjVsqfU31W/8XYR2PGsLemP749sbGFTGueBGYHcm3XNiljToY22IvdFF0AfyJ8Vy041UFT40o1Yq3DCPCehDqgPhNCbAY+RYhfbqFnHXgmqmjJm2yZdEW4u+Es5Vy/4kGJtPoD9mzq7+v0CreQivyrBVRT6/elhGTqkvmrUtTF7/RZClwVI6B2n/6xgLhank72igiBWO3bKbhV7p8Z9ngBISQNox/MKzlud7xWeO7D8ifry0zo3/po/b8x/fsTj7X9tq5rj8NJPriyWBGAptpFP2w5q7MJ4NQr9wKVmVYq6NOzLoWbes54eog6HNKHzV+0S0OS8d24f/8qWSWGdlmMBGCG+4Uzb4ZPINs5YNw3X8IJtsosZ6+I8cWVU88jsrDCRxmCKiNskU/s+vHaFOwSUvgH4GD8KcwINejSTOsk6BOyNoV2iItD497+e2mPxmh/2VtIGp7IGrD67ksbNAQZvmk2XC54bGKKF0ZMC7AkjaMF+e1UCdjbeIXSMTW8+uN8L0SbfR3IyyY8bIryRS38cpsHiF+SUWuh5zDslDvALDtljjJb6NjdSMe3sSnwO4mvrNp+QN+G33WyVAnYu3VcrnagJ4T/J9ooNanO9Da3DL/w8jzFuVaTvTqFa+4UECPGZR6XfnLQjzqQLjj404hdgpqlLRhHNATqxPBTuTXr6Di0moR6ZB1UtSZZx0zMUFM2jCen9dDnXXW8gpm+UPZbwjruJ49iTaej/LUJk3SCkZOGrLWaBdPWe9rkPbjWgP19MbBqE5s8iQJ6njShnFHE3WWWYsrmOW/DPrdHT0HyTBrT4h6MGnMWgv19MaL4Z/WJEpYl6uQRqw1cpAMsxYNd6mRRqxXT1mrS9AFsvy+8q/fO2WtrujIYgLShnFbl/XR0M5oYhVBnYj0KesE4jv2EpI2jJunrBXFdewlJm0YVzZOWSuJRb38N41NHOmy1pv4dGLF9KGu6JA2jINVPRPJGGsatSZpWHJqmki2WFPd1dqkoQ6mtWBninWIeuV7x9rQCy3Yq1qTJ0+m+qiPSdrAsJN7doZYB4MwxycNdXAlOezssPZRp0Ia6s7R7aS0M8OaoE6LNNKdo5sbibI/nQnYJ1GfYNKfpLvROy9eTifArTEB+yRqfwiksSDumxuQtwrwbLDeHxJpoucvjq5Mbwwmvnpb59nGE6b9M/Xhkfb1/ODo5ZXbqxuEuZD66vSwD2L8+mR56KT7uvP84MXRy5dXbhLsvjD91Y1Xf46ZN2C+x9B0B+r5wcHBC6Sjo6zOWDhV+vp/CZbNZMTKfGcAAAAASUVORK5CYII=;" vertex="1" parent="1">
          <mxGeometry x="600.4200000000001" y="109.99705882352941" width="99.58" height="38.23529411764706" as="geometry" />
        </mxCell>
        <mxCell id="1sTkTSWfPqv4WF1auIRF-28" value="" style="endArrow=classic;html=1;rounded=0;entryX=-0.002;entryY=0.208;entryDx=0;entryDy=0;entryPerimeter=0;" edge="1" parent="1" target="1sTkTSWfPqv4WF1auIRF-26">
          <mxGeometry width="50" height="50" relative="1" as="geometry">
            <mxPoint x="500" y="212" as="sourcePoint" />
            <mxPoint x="570" y="140" as="targetPoint" />
            <Array as="points">
              <mxPoint x="540" y="212" />
              <mxPoint x="540" y="160" />
            </Array>
          </mxGeometry>
        </mxCell>
        <mxCell id="1sTkTSWfPqv4WF1auIRF-29" value="" style="sketch=0;outlineConnect=0;fontColor=#232F3E;gradientColor=none;fillColor=#C925D1;strokeColor=none;dashed=0;verticalLabelPosition=bottom;verticalAlign=top;align=center;html=1;fontSize=12;fontStyle=0;aspect=fixed;pointerEvents=1;shape=mxgraph.aws4.rds_postgresql_instance;" vertex="1" parent="1">
          <mxGeometry x="820" y="156" width="78" height="78" as="geometry" />
        </mxCell>
        <mxCell id="1sTkTSWfPqv4WF1auIRF-30" value="1)decide tables structures.&lt;br&gt;2) create tables." style="shape=callout;whiteSpace=wrap;html=1;perimeter=calloutPerimeter;" vertex="1" parent="1">
          <mxGeometry x="810" y="76" width="120" height="80" as="geometry" />
        </mxCell>
        <mxCell id="1sTkTSWfPqv4WF1auIRF-31" value="" style="endArrow=classic;html=1;rounded=0;exitX=1;exitY=0.692;exitDx=0;exitDy=0;exitPerimeter=0;entryX=0;entryY=0.307;entryDx=0;entryDy=0;entryPerimeter=0;" edge="1" parent="1" source="1sTkTSWfPqv4WF1auIRF-26" target="1sTkTSWfPqv4WF1auIRF-29">
          <mxGeometry width="50" height="50" relative="1" as="geometry">
            <mxPoint x="715.21" y="210" as="sourcePoint" />
            <mxPoint x="765" y="130" as="targetPoint" />
            <Array as="points">
              <mxPoint x="770" y="220" />
              <mxPoint x="770" y="180" />
            </Array>
          </mxGeometry>
        </mxCell>
        <mxCell id="1sTkTSWfPqv4WF1auIRF-32" value="" style="shape=image;verticalLabelPosition=bottom;labelBackgroundColor=default;verticalAlign=top;aspect=fixed;imageAspect=0;image=data:image/png,iVBORw0KGgoAAAANSUhEUgAAASwAAACoCAMAAABt9SM9AAAA51BMVEX///8fRH7odixbZZHHIDVihp0ALXPrkSwcQn3odSkAMHQCOXjrkzL19viiq8DnbxhKVogANHYAN3hfjJ6DkK6Tr7rrjyXqjRzpfzzDABQAL3RRe5TR1d/EAB/0xp/upV/IJzonSYCstcfz1dOxwcvj5ew9WIm/xdNWhplrk6RncJhUXo2gt8Lp6/D0wqvY2+STnre/AABMY5DphQD14OK4v89meJ1xgaMAJnBYbZY0UYV9n63xsJLmaQDyuJ0AEGkAAGYAHm2WobnH1NrzwZf87+VIdZDtnk/wro2Mkq85R4DFACUACmd+HClTAAAJMUlEQVR4nO2dD3ubNhrATf4QFYYTCG2uDtldPNtkl7h2ybCxe7ss7q67dvv+n2dIgC2BJHibhMTx+3v69DFCCOkHEpL4k04HQXaGz4PB5+fOw9bw9urq7XPnYWt4e3qKspqCsgCgLAAoCwDKAoCyAKAsACirxI8UMWh4dVrhaiDGGVDay+UL4d3Z2dk7MUgm67Rk5svh+eFhe7l8IfxwdHT0gxg0vMphp1ROSVaqCmUxnBzaZhW/HTEKyiqjaeBRVhmUVQJlAUBZAFAWAJQFAGUBQFkAdLJuPn26UaxCWQB2RtbvP3IcUfiA3/8n38oZ8FBXh0JIu2VojdszDiaLD7hVyBp/OTw/T/+x/w4L6CJb/tJuGVrj9kiHUtbGkIzzdsvQGrfvOJggPgBlCfzxTw4miw/4Q1kNzzmKOrjmtVZDAbwaAkBZAFAWAJQFQCPrP5T/y9ehrBK/Hqf8Kl+Hskoc76Ucy9ehrBIoqwzKAoCyAKAsAI8iy/k6nX4dPkHunpvB1dUpt/g4sk6ur08mj5fHF8Pg9PRnbvE25UweUyeLTUGsl5yT/f1dkKVBJ0sEZaEslAUCZQFAWQBQFgCNrA97/+B5Q2W9EYL2Psi3pLJeUafUeXuT8SmVlf+8Kd1G/nD8hmePIQQdi7L2/52zn7L+XXpWdwtxZG8ClJ6R+XC8V0NJ1sm+hJNXKavyUi/KynFuuGo4uBkMPqeUmhlwNfx2kkMlXee/v22/rDUPauDfyBt4ejW83rGrYQnsOqAsCCgLAMoCgLIAlGT9QpHH1MkaUtZLuyLrz/cXFx/lMXWy7iyr562XXq8s8YbFvw4ODt7LY+pkmYZBLtdLr1ZWiceRlY6i91FWM1m7AsoCgLIAoCwAKAuARpbuMUmUVeK/DPk6lAUAZQFAWQB2RtZPHL9QWRd8yE+KrZyAxzUM43LCh7RahPb4eMFxQOEDPiombIb3LodB4QPu2i1Da7w/0HGhkDW2DB1mu2VoDZQF4Dur4Z25oUf9EC7A/K3VIrRHTQOvuqHs8PTY1ZAPabUIz4Su6xAGQTiWr9qZroOARpbz7fr6RNElQFkl2BMMKIsDZQFAWQBQFgCUBQBlAUBZAHSdUs3Djygrp1twncr6WiyI4xmUlXNdwJ5BzjkRxz27KevPi8ojR7KH2/dLsu5ct2e3mM2XgWQmuXi4/Vp4ul2UFUxSWszmi2U9rU7brH6xsBNzMA/gtb4K8BTo+llICZQFAGUBQFkAUBYAlAUAZQFwvqUdd5TVkPGO3DtFEARBEARBkNcEvTUxUTwAiJSwepaVrJ47F1sCfTDZ7j53LrYElAVgx2U5dO6lcZO947K6971e76+msbdBVtBPiZ8k6b4HedlmG2T5pue5yydJ+hXKsg2DjJ4kaZQFAGUBQFkAUBYAlAUAZQFAWQAyWU1vNqMsw+jtsqxxf75YLhfzvtOZ3ptmYqijFrLC6TwaRYup/uGPJrKC1TyKFvNuo8d1ndifpfuddYedkL7S/5d0TD8MKdwRdViAfPwPkzWJEs8mKbaXzOdEvymTRUama2ebWKSvSbpeVp9YWUJ2bxnW5dRJx3EsNrHNaGrTwyYV0E9c173nvlgf0E+W3MsPLEiWn5DN9yhsYjSQZXBbEHep/nMddbLGS3eTFOkt9NU7NG1uv+y3QhbNpMXLot90cR8ua+ZWvuBRL0uMnihrUI2swCRCSjbR2eompLLvdmX5bn6c6Bd0bNJYVhrfcr0895aqjHpZw2SdVp4U0UyVxOvYllXk9LtkxdXjbZQOmi/NQWDmh3QVTIJwRdy6apjtyXP9cDKcxIvs1CCRIrZe1mW2sZmmFcQzlpSnvBXkZK5sGnsYdJcW+W5ZLuHJbfEoZGVKzXUW48uaBp7J8tYTi5OswD1F26yV1WXe7aKhmtDiE2UXbs7aKG9WrA8i8ohnlohcVsgqYY+bVF3V1GC2hcVlkdlSnVpaWZmruZi0KnZ2YnGxO6HXsqwZKeWgM20ki88Hq8imvA+jk8VSEt7SXBJ1q5V1WfjYcZ0sbpUo657/xFJ2hRW+umQmc1mq1YLWXRsqsjoLIlRMAZ0sVq+EKxTdt5HI6+GsspfvliV+c6kosePUfHdpTL9lJaqBy2KZVjWJGlmsuSSLeYqfwVohxQWeHX+hQdPIivWyRJp2HSZWpZxwWeyza2Qhja2TlV2H0677GnatcOXXChpbrKIVI5pMPoasoNqkwmVl5QDLYme1rHGVDp8ctpMZH9S3y+eaOpNbL4t9B5C4ZZKpLLZEVvf5Zc1q+llVWc4DziwyCyvIx07VnTyPLKHNgsuauOXux4a6NkvhWAIdWhBh6ggia/IIsrKTgvBBcFks07Z8mFJ7NWw8Qb0k5U4ORFb4GANp1v22+EQWYFmsGIprWG0/y9PNhvGwPpiQVJ0sd1IKsORTSY1lsQk04YocQWX1WUfcksfWycp68ES+shrbKvefV7byzGTNC9+DZWIfKmucjbi4loPJ0rQkQWlsmI12FH1S/diQDfjt0r6Uj35lfViyWT9VyxqX28MR3VgxNmg+n8XObsNermsiqWl2s4NWVDrHZ66UcwVaWXGvtO809flvqlmHOO9qrOutr5aVNQ2bqZDs7FcM9gGTf1m3mVjGzJ/6/sJrJMvwzCgdo8xH+TyvqWp5tLI6s2wMay2n3Tjud/0ocW35+IWyyPblmQt/OvVnl9kASB43ZMfBzPbsTLMhsOLeCkDWMJ/ZJWzckU2FEXk/gBHks9BkHTs9hIpKWDutPLKLtDzPy4Y7allFbIPLqaFq8jKzdnpMiyPqqQoFmYMfXlamdxSdJkYhawPRPOheI6uzqKSmkdVZVD/+rfy0VJRPl+dTocRS1hbYrbBVUsyl5wcuUZ4paffubj3/nUU2I83fYq+T1ekmtrBv7153yyK2XTGnrqeMuzI3KRPPUmfCT89Su/lNVqc/ojfa0qrguT0z0t84dULfMIuBXM/1tfdGa2V1nJWR34O0bTcZdXWuUuJZz2IZ9VzLXPqhJrrTjRKLZtJKIl1vbjqKoqjxSIKlPAnDOCXQnCZibEpt7HpZKeNwNZ9FM7+rK/qGSdiP+/04bJLTIf16V6MivQAayUIyUBYAlAXATVtYfIWuIfhyJrIr/A1zHUk1CUIYVQAAAABJRU5ErkJggg==;" vertex="1" parent="1">
          <mxGeometry x="1030" y="166" width="103.57" height="58" as="geometry" />
        </mxCell>
        <mxCell id="1sTkTSWfPqv4WF1auIRF-33" value="" style="endArrow=classic;html=1;rounded=0;" edge="1" parent="1">
          <mxGeometry width="50" height="50" relative="1" as="geometry">
            <mxPoint x="898" y="200" as="sourcePoint" />
            <mxPoint x="1020" y="200" as="targetPoint" />
          </mxGeometry>
        </mxCell>
        <mxCell id="1sTkTSWfPqv4WF1auIRF-34" value="Dashboard will be created for analyzing the user&#39;s data." style="shape=callout;whiteSpace=wrap;html=1;perimeter=calloutPerimeter;" vertex="1" parent="1">
          <mxGeometry x="1050" y="89.11" width="140" height="80" as="geometry" />
        </mxCell>
      </root>
    </mxGraphModel>
  </diagram>
</mxfile>
